<?xml version="1.0" standalone="no"?>
<!DOCTYPE svg PUBLIC "-//W3C//DTD SVG 20010904//EN"
 "http://www.w3.org/TR/2001/REC-SVG-20010904/DTD/svg10.dtd">
<svg version="1.0" xmlns="http://www.w3.org/2000/svg"
 width="84.000000pt" height="84.000000pt" viewBox="0 0 84.000000 84.000000"
 preserveAspectRatio="xMidYMid meet">

<g transform="translate(0.000000,84.000000) scale(0.100000,-0.100000)"
fill="#000000" stroke="none">
<path d="M287 762 c-48 -53 13 -140 77 -111 67 31 44 129 -29 129 -18 0 -39
-8 -48 -18z"/>
<path d="M138 587 l-67 -52 -1 -111 c0 -123 -3 -118 72 -129 25 -4 50 -10 56
-14 11 -7 8 -66 -13 -213 -5 -37 -4 -38 25 -38 16 0 30 1 30 3 0 2 18 64 40
137 22 73 40 135 40 136 0 2 -25 22 -55 45 l-55 41 33 45 c17 25 37 48 44 50
7 3 54 -11 105 -30 80 -30 95 -33 107 -21 8 7 13 15 10 17 -66 58 -272 187
-296 187 -4 0 -38 -24 -75 -53z"/>
<path d="M570 610 c0 -16 -4 -30 -9 -30 -5 0 -32 -10 -61 -23 l-53 -24 55 -39
c46 -33 53 -42 44 -56 -8 -14 -4 -24 23 -52 20 -20 39 -32 48 -29 8 3 29 -8
48 -27 l33 -32 41 61 c25 36 39 66 35 74 -30 49 -119 157 -130 157 -8 0 -14 7
-14 15 0 8 -7 15 -15 15 -8 0 -15 5 -15 10 0 6 -7 10 -15 10 -10 0 -15 -10
-15 -30z m118 -148 c2 -7 -3 -12 -12 -12 -9 0 -16 7 -16 16 0 17 22 14 28 -4z"/>
<path d="M304 414 l-27 -35 29 -24 c16 -14 32 -24 37 -25 13 0 8 -24 -33 -160
-22 -73 -40 -135 -40 -137 0 -2 42 -3 93 -3 l93 0 12 71 c14 79 49 159 90 202
l26 27 -34 35 c-19 20 -40 33 -47 31 -7 -3 -49 8 -93 24 l-80 29 -26 -35z"/>
<path d="M756 334 c-29 -43 -35 -59 -26 -69 9 -11 18 -11 56 2 41 14 44 17 44
50 0 36 -15 73 -29 73 -4 0 -25 -25 -45 -56z"/>
<path d="M10 155 l0 -126 73 3 72 3 7 65 c4 36 9 86 13 111 l5 47 -47 6 c-27
4 -65 9 -85 12 l-38 6 0 -127z"/>
</g>
</svg>
